<?xml version="1.0" encoding="utf-8"?>
<!-- Generator: Adobe Illustrator 24.0.0, SVG Export Plug-In . SVG Version: 6.00 Build 0)  -->
<svg version="1.1" xmlns="http://www.w3.org/2000/svg" xmlns:xlink="http://www.w3.org/1999/xlink" x="0px" y="0px"
	 viewBox="0 0 1080 1080" style="enable-background:new 0 0 1080 1080;" xml:space="preserve">
<style type="text/css">
	.st0{fill:#FFFFFF;}
	.st1{fill:#F90000;}
</style>
<g id="Layer_1">
	<image style="overflow:visible;" width="1082" height="1082" xlink:href="logo2-100.jpg"  transform="matrix(1 0 0 1 -1 -1)">
	</image>
</g>
<g id="Layer_2">
	<rect x="-0.5" y="-0.5" class="st0" width="1081" height="1081"/>
</g>
<g id="Layer_17">
	<g>
		<g id="XMLID_7_">
			<path id="XMLID_8_" class="st1" d="M774.9,653.9h-199V461.3l99.5-88.3l99.5,88.3V653.9z M606,616.7h138.8V476.3l-69.4-61.6
				L606,476.3V616.7z"/>
		</g>
		<g id="XMLID_1_">
			<path id="XMLID_6_" class="st1" d="M723.9,535.8c-0.1-5.6-1.7-15.4-10.6-14.7c-4.2,0.3-19.1,4.4-28.1,3.6c-4.7-0.4-16-3.1-18.6,0
				c-2.5,3.1-2.8,12.5-1.8,15.3c0.8,2.4,7.1,8.5,13.8,10.4c7.7,2.2,21.2-0.5,21.2-0.5c3.1,0.1-0.1,1.6-0.1,1.6
				c-16.9,4.1-28.3-1-28.3-1s-11.6-4.8-14.7-13c-2.6-6.8-7.6-12.3-7.6-12.3c-13.1-7.5-21.6,4.2-21.6,4.2c-1.7,3.2,0.8,9.1,0.8,9.1
				c3.4,8.2,12.2,23.5,15.9,26.9c3.7,3.4,18.1,12.8,18.1,12.8l-4.7,128.3l42.4,0.5c0,0-2.6-123.6-1.9-126.3c0.7-2.8,3.7-4.1,3.7-4.1
				c6.2-6.3,13.8-3.8,18.6-14C724.6,553.3,724,542.6,723.9,535.8z"/>
			<path id="XMLID_5_" class="st1" d="M639.9,518.4c0,0,6.1,4.7,11.5,3.1c0,0,9-1.8-5.5-37.8c0,0-14-9.1-18.9,7.3
				C627.1,491,627.5,507.5,639.9,518.4z"/>
			<path id="XMLID_4_" class="st1" d="M697.9,517.6c11.8,6.4,21.7-3.9,22.6-4.6c0.1,0,0.1-0.1,0.1-0.2c4.1-5.1-0.4-15.9-0.4-15.9
				c-3.3-8-10.6-6.4-10.6-6.4C701.9,492.7,693.5,509.9,697.9,517.6z"/>
			<path id="XMLID_3_" class="st1" d="M683.8,518.3c5-0.3,9.1-7.8,9.1-7.8c9.7-15.8,9.5-31.2,9.5-31.2c-5.2-12.3-18.6-5.1-18.6-5.1
				c-6.7,6.2-6.7,30-6.7,30C676.7,510.3,678.8,518.6,683.8,518.3z"/>
			<path id="XMLID_2_" class="st1" d="M671,514.6c5.1-6.4,4.4-26.9,4.4-26.9c0.3-12.4-3.1-16.2-3.1-16.2
				c-13.5-9.4-19.8,4.2-19.8,4.2c-1.9,7.6,3.7,35.5,3.7,35.5C661.5,523.3,671,514.6,671,514.6z"/>
		</g>
		<g>
			<path class="st1" d="M418.5,576.8c-0.1,1-0.5,1.9-1,2.6c-0.6,0.7-1.2,1.2-1.9,1.5c-0.7,0.3-1.5,0.3-2.3,0.1
				c-0.8-0.2-1.6-0.8-2.3-1.6c-0.6-0.7-0.9-1.6-1-2.5c-0.1-0.9-0.2-1.8-0.4-2.7c-0.5-2.6-1.1-5.2-2-7.9c-2.9,0-5.7,0.1-8.6,0.1
				c-2.8,0-5.7,0-8.5,0.1c-0.4,1.2-0.8,2.4-1.1,3.7c-0.3,1.3-0.6,2.5-0.9,3.7c-0.2,0.9-0.4,1.9-0.6,2.9c-0.2,1-0.6,1.9-1.3,2.6
				c-0.8,0.9-1.6,1.5-2.5,1.6c-0.9,0.1-1.7,0-2.4-0.5c-0.7-0.4-1.3-1.1-1.7-1.9c-0.4-0.9-0.6-1.8-0.5-3c0.1-1.4,0.4-2.9,0.8-4.2
				c0.4-1.4,0.8-2.8,1.2-4.2c2.1-8,4.8-15.7,8.1-23.2c0.3-0.6,0.6-1.3,0.9-1.9c0.3-0.6,0.6-1.2,0.9-1.8c0.3-0.6,0.6-1.3,1-2.1
				c0.3-0.7,0.7-1.4,1.1-2.1c0.4-0.6,1-1.2,1.6-1.6c0.6-0.4,1.3-0.7,2.2-0.7c1.2,0,2.1,0.4,2.9,1.1c3.2,3.2,5.8,6.7,7.8,10.7
				c2,4,3.9,8,5.5,12.1c1,0,1.9,0,2.9,0c0.9,0,1.8,0.5,2.5,1.3c0.6,0.7,1,1.3,1.1,2.1c0.1,0.7,0,1.5-0.2,2.2
				c-0.3,0.7-0.7,1.3-1.3,1.8c-0.6,0.5-1.3,0.9-2.1,1c0.5,1.6,0.9,3.3,1.2,5c0.3,1.7,0.6,3.4,0.9,5.1V576.8z M404.3,557.9
				c-0.9-2.1-1.8-4.2-2.8-6.2c-1-2.1-2.1-4-3.4-5.9c-0.9,2-1.8,4.1-2.6,6.1c-0.8,2-1.6,4.1-2.3,6.2c2.2,0,4.1-0.1,5.7-0.1
				C400.6,558,402.4,557.9,404.3,557.9z"/>
			<path class="st1" d="M433.8,574.5c0.5,0.5,0.9,1.1,1.3,1.8c0.3,0.7,0.5,1.4,0.6,2.2c0,0.7-0.1,1.4-0.5,2c-0.3,0.6-1,1.1-1.8,1.4
				c-0.7,0.2-1.5,0.3-2.3,0.1s-1.7-0.4-2.5-0.8c-0.8-0.4-1.5-0.9-2.2-1.5c-0.6-0.6-1.1-1.2-1.4-1.9c-0.1-0.2-0.2-0.5-0.2-0.8
				c0-0.3-0.1-0.6-0.1-0.8v-38.6c0-1.1,0.4-2,1.2-2.7c0.8-0.7,1.7-1.2,2.7-1.3c0.5,0,1,0,1.5,0.2c0.5,0.2,1,0.5,1.5,0.8
				c0.5,0.3,0.8,0.8,1.1,1.2c0.3,0.5,0.5,1,0.5,1.5c0,1.2,0,2.8,0,4.8c0,2,0,4.2,0,6.5c0,2.4,0,4.8,0,7.3c0,2.5,0,5,0,7.3
				c0,2.3,0,4.4,0,6.4s0,3.5-0.1,4.6L433.8,574.5z"/>
			<path class="st1" d="M460.8,558.9v-1c-0.4-1.1-1.1-1.8-2-2.3c-0.9-0.4-1.9-0.7-3-0.8c-0.6,0.2-1.1,0.4-1.5,0.6
				c-0.4,0.2-0.7,0.5-1,0.8s-0.5,0.6-0.8,0.9c-0.2,0.3-0.5,0.7-0.8,1.1v18.2c0,1.4-0.4,2.6-1.3,3.4c-0.9,0.8-1.8,1.3-2.9,1.4
				c-1,0.1-2-0.1-2.9-0.8c-0.9-0.6-1.3-1.7-1.4-3.2c-0.1-3.6-0.1-7.6-0.1-12.2c0-4.5,0-9.6,0-15.2c0-1,0.3-1.8,0.9-2.4
				c0.6-0.6,1.3-1.1,2.1-1.3c0.8-0.2,1.6-0.2,2.5,0c0.9,0.3,1.6,0.8,2.1,1.6c2.6-1.3,5.2-1.7,7.8-1.2s4.9,1.7,7,3.7
				c0.9-0.9,1.9-1.8,3-2.5c1.1-0.7,2.2-1.2,3.5-1.5c1.4-0.2,2.9-0.2,4.4,0.2c1.5,0.3,2.8,0.9,4.1,1.7c1.3,0.8,2.4,1.8,3.3,2.9
				c1,1.2,1.7,2.4,2.1,3.8c0.2,0.9,0.3,1.8,0.3,2.5v18.9c0,0.6-0.1,1.1-0.2,1.6c-0.4,1.2-1.1,2.1-2,2.5c-0.9,0.5-1.8,0.7-2.8,0.5
				c-1-0.1-1.8-0.6-2.5-1.3c-0.7-0.7-1-1.7-1-3v-18.7c-0.4-1.1-1-1.9-1.8-2.4c-0.8-0.5-1.6-0.7-2.4-0.7c-0.8,0-1.6,0.3-2.4,0.9
				c-0.8,0.6-1.4,1.3-1.8,2.3v18.2c0,1.3-0.4,2.3-1.2,3.1c-0.8,0.8-1.7,1.4-2.7,1.6c-1,0.2-1.9,0.1-2.7-0.3
				c-0.9-0.4-1.4-1.3-1.5-2.5L460.8,558.9z"/>
			<path class="st1" d="M516.8,569.5c1.1-0.3,2.1-0.3,3,0c0.9,0.3,1.5,0.7,2,1.3c0.5,0.6,0.7,1.3,0.6,2.2c0,0.9-0.4,1.8-1.2,2.8
				c-0.6,0.8-1.4,1.5-2.5,2c-1.1,0.6-2.1,1-3,1.3c-2.3,0.8-4.4,1.4-6.5,1.7c-2,0.3-4,0.3-5.7,0c-1.8-0.3-3.5-1-5-2
				c-1.6-1-3-2.5-4.4-4.3c-0.9-1.3-1.6-2.7-2.1-4.3c-0.4-1.6-0.7-3.2-0.7-4.9c0-1.7,0.1-3.3,0.4-4.9c0.3-1.6,0.8-3.1,1.4-4.4
				c0.8-1.6,2-3.1,3.8-4.5c1.7-1.3,3.6-2.4,5.7-3.2s4.2-1.2,6.4-1.4c2.2-0.1,4.1,0.2,5.8,1c1.4,0.7,2.6,1.6,3.6,2.8
				c1,1.2,1.7,2.6,2.1,4c0.4,1.4,0.4,2.9,0.1,4.4c-0.3,1.5-1.1,2.8-2.3,4c-1.2,1.2-2.4,2.1-3.8,2.8c-1.4,0.7-2.8,1.3-4.3,1.9
				c-1.5,0.5-3,1-4.6,1.4c-1.6,0.4-3.1,0.8-4.5,1.3c1,1.1,2.1,1.8,3.3,2.1c1.3,0.3,2.6,0.4,3.9,0.2c1.4-0.2,2.7-0.6,4.1-1.1
				c1.4-0.6,2.7-1.2,3.9-1.9L516.8,569.5z M502.8,557.5c-1.1,0.6-1.9,1.4-2.4,2.3c-0.5,0.9-0.9,2.2-1.1,3.8c1.2-0.4,2.6-0.8,4.1-1.2
				c1.5-0.4,2.9-0.9,4.3-1.3c1.3-0.5,2.5-1,3.4-1.5c0.9-0.6,1.4-1.2,1.4-1.8c0-0.4-0.1-0.7-0.2-1.1c-0.1-0.3-0.4-0.6-0.7-0.7
				c-1.3-0.5-2.6-0.6-4-0.3c-1.4,0.3-2.6,0.7-3.5,1.2L502.8,557.5z"/>
			<path class="st1" d="M554,577c-0.1,1.2-0.6,2.1-1.3,2.9c-0.7,0.7-1.5,1.2-2.4,1.4c-0.9,0.2-1.8,0.1-2.6-0.3
				c-0.8-0.4-1.4-1.2-1.8-2.4c-0.4-1.3-0.6-2.7-0.5-4.1c0.1-1.4,0.1-2.7,0.1-3.9c0-2.5,0-5,0-7.5c0-2.5-0.1-5-0.3-7.5
				c0-0.1-0.1-0.2-0.1-0.2c0-0.1-0.1-0.2-0.3-0.3c-1.1-0.3-2.2-0.2-3.4,0.2c-1.2,0.4-2.2,1-3.1,1.6c-0.7,0.6-1.5,1.4-2.2,2.5
				c-0.7,1-1.1,2.1-1.1,3v9.6c0,0.7,0,1.6,0.1,2.4c0,0.9,0,1.7-0.1,2.6c-0.1,0.8-0.4,1.6-0.8,2.3c-0.4,0.7-1.1,1.2-2,1.5
				c-0.5,0.2-1,0.3-1.4,0.2c-0.4,0-0.9-0.2-1.4-0.3c-0.8-0.3-1.4-0.8-1.8-1.4c-0.4-0.7-0.6-1.4-0.8-2.2s-0.2-1.5-0.2-2.2
				c0-0.7,0-1.3,0-1.7c0-1.1,0-2.6,0-4.6c0-2,0-4.1,0-6.4s0-4.4,0-6.4c0-2,0-3.6,0-4.6c0-1,0.3-1.9,0.9-2.5c0.6-0.7,1.3-1.1,2.1-1.3
				c0.8-0.2,1.7-0.2,2.6,0.1c0.9,0.3,1.7,0.9,2.3,1.8c1.9-1.2,3.9-2,6.1-2.4c2.2-0.4,4.3-0.3,6.3,0.2c2,0.6,3.6,1.6,4.9,3.1
				c1.3,1.5,2,3.6,2.1,6.3c0,0.1,0,0.4,0.1,0.8c0,0.5,0.1,1.1,0.1,1.9V577z"/>
			<path class="st1" d="M293.7,620.9v-1c-0.4-1.1-1.1-1.8-2-2.3c-0.9-0.4-1.9-0.7-3-0.8c-0.6,0.2-1.1,0.4-1.5,0.6
				c-0.4,0.2-0.7,0.5-1,0.8s-0.5,0.6-0.8,0.9c-0.2,0.3-0.5,0.7-0.8,1.1v18.2c0,1.4-0.4,2.6-1.3,3.4c-0.9,0.8-1.8,1.3-2.9,1.4
				c-1,0.1-2-0.1-2.9-0.8c-0.9-0.6-1.3-1.7-1.4-3.2c-0.1-3.6-0.1-7.6-0.1-12.2c0-4.5,0-9.6,0-15.2c0-1,0.3-1.8,0.9-2.4
				c0.6-0.6,1.3-1.1,2.1-1.3c0.8-0.2,1.6-0.2,2.5,0c0.9,0.3,1.6,0.8,2.1,1.6c2.6-1.3,5.2-1.7,7.8-1.2s4.9,1.7,7,3.7
				c0.9-0.9,1.9-1.8,3-2.5c1.1-0.7,2.2-1.2,3.5-1.5c1.4-0.2,2.9-0.2,4.4,0.2c1.5,0.3,2.8,0.9,4.1,1.7c1.3,0.8,2.4,1.8,3.3,2.9
				c1,1.2,1.7,2.4,2.1,3.8c0.2,0.9,0.3,1.8,0.3,2.5v18.9c0,0.6-0.1,1.1-0.2,1.6c-0.4,1.2-1.1,2.1-2,2.5c-0.9,0.5-1.8,0.7-2.8,0.5
				c-1-0.1-1.8-0.6-2.5-1.3c-0.7-0.7-1-1.7-1-3v-18.7c-0.4-1.1-1-1.9-1.8-2.4c-0.8-0.5-1.6-0.7-2.4-0.7c-0.8,0-1.6,0.3-2.4,0.9
				c-0.8,0.6-1.4,1.3-1.8,2.3v18.2c0,1.3-0.4,2.3-1.2,3.1c-0.8,0.8-1.7,1.4-2.7,1.6c-1,0.2-1.9,0.1-2.7-0.3
				c-0.9-0.4-1.4-1.3-1.5-2.5L293.7,620.9z"/>
			<path class="st1" d="M323.4,624.2c0.3-1.3,0.8-2.7,1.4-4c0.6-1.3,1.3-2.5,2.1-3.7s1.8-2.3,2.8-3.2c1-1,2.2-1.8,3.4-2.4
				c2.1-1.1,4.3-1.7,6.4-1.7c2.2,0,4.2,0.4,6,1.3c1.9,0.9,3.4,2.2,4.7,3.9c1.3,1.7,2.2,3.8,2.6,6.2c0.2,1.6,0.4,3.1,0.4,4.5
				c0,1.4-0.1,2.9-0.5,4.4c-0.5,2.2-1.4,4.4-2.8,6.5c-1.4,2.2-3.1,4-5.1,5.4c-2,1.5-4.1,2.4-6.5,2.9c-2.3,0.5-4.7,0.1-7.1-1.1
				c-1.1-0.5-2-1.1-2.9-1.8c-0.9-0.7-1.6-1.5-2.3-2.4c-0.8-1-1.4-2.1-1.8-3.2c-0.4-1.1-0.8-2.3-1.1-3.5c-0.3-1.3-0.4-2.6-0.3-3.9
				c0.1-1.3,0.3-2.6,0.5-3.9L323.4,624.2z M331.8,625.7c-0.1,0.7-0.3,1.5-0.3,2.2c-0.1,0.7-0.1,1.5,0,2.2c0.1,1.1,0.4,2,0.9,2.9
				c0.4,0.9,1,1.6,1.7,2.1c0.7,0.5,1.5,0.8,2.5,0.8c0.9,0,1.9-0.3,3-0.9c1.3-0.8,2.5-2,3.5-3.7c1-1.6,1.6-3.4,1.8-5.2
				c0.2-1.8,0-3.5-0.6-5.1c-0.6-1.6-1.8-2.8-3.6-3.4c-1.2,0-2.2,0.2-3.2,0.7c-1,0.4-1.8,1-2.5,1.7c-0.7,0.7-1.3,1.6-1.9,2.5
				C332.5,623.6,332.1,624.6,331.8,625.7z"/>
			<path class="st1" d="M387,635.3c0.8,1.3,1.1,2.6,0.8,3.6c-0.3,1.1-0.8,1.9-1.6,2.4c-0.8,0.5-1.8,0.7-2.9,0.6
				c-1.1-0.1-2.2-0.7-3.3-1.8c-1.1,0.8-2.3,1.4-3.5,1.8c-1.2,0.4-2.5,0.8-3.8,1.1c-2.1,0.5-4.1,0.4-6-0.1c-1.9-0.5-3.6-1.4-5.1-2.6
				c-1.5-1.2-2.7-2.7-3.6-4.5c-0.9-1.8-1.4-3.7-1.5-5.8c-0.1-2.3,0-4.5,0.5-6.7c0.5-2.1,1.3-4.1,2.3-5.8c1.1-1.8,2.5-3.3,4.2-4.5
				s3.8-2.1,6.2-2.6c1.4-0.3,2.8-0.4,4.2-0.4c1.4,0,2.8,0.1,4.2,0.3c0-1-0.1-2.2-0.1-3.5c0-1.3,0-2.6,0-3.9c0-1.3,0-2.4,0.1-3.4
				c0.1-1,0.2-1.7,0.3-2.1c0.3-0.8,0.8-1.5,1.5-1.9c0.7-0.4,1.4-0.7,2.1-0.7c0.7,0,1.5,0.2,2.2,0.6c0.7,0.4,1.3,1,1.7,1.8
				c0.1,0.2,0.2,0.5,0.3,0.7s0.2,0.4,0.2,0.7c0,6.1,0.1,12.1,0,18c0,5.9,0,12,0,18C386.7,634.9,386.8,635.1,387,635.3z M377.3,631.4
				c0.1-0.1,0.3-0.3,0.5-0.4c0.3-0.1,0.4-0.3,0.4-0.6c0-1.9,0-3.9,0-5.7c0-1.9,0-3.8-0.1-5.7c-1.1-0.2-2.3-0.4-3.5-0.4
				c-1.2,0-2.4,0.1-3.5,0.3c-1.1,0.3-2.2,0.7-3.1,1.4c-1,0.7-1.7,1.6-2.3,2.8c-0.3,0.9-0.5,1.8-0.8,2.6c-0.2,0.9-0.4,1.7-0.4,2.6
				c0,0.8,0.1,1.7,0.3,2.5c0.2,0.8,0.6,1.6,1.2,2.3c0.2,0.2,0.4,0.4,0.7,0.6c0.3,0.2,0.8,0.5,1.5,1c1.7,0.1,3.4,0,4.9-0.5
				C374.7,633.7,376.1,632.8,377.3,631.4z"/>
			<path class="st1" d="M392.8,636.2c-0.3-0.8-0.4-1.6-0.3-2.3c0-0.8,0.2-1.5,0.6-2.1c0.3-0.6,0.8-1.1,1.5-1.5
				c0.6-0.3,1.4-0.5,2.4-0.4c0.5,0,1,0.2,1.4,0.4c0.4,0.2,0.8,0.5,1.1,0.8c0.3,0.3,0.7,0.7,1,1c0.3,0.4,0.7,0.7,1.1,1
				c0.8,0.6,1.6,1,2.5,1.3c0.9,0.3,1.8,0.5,2.8,0.6c0.6,0,1.2-0.2,1.6-0.5c0.4-0.3,0.7-0.7,0.8-1.2s0.2-1,0.1-1.5
				c-0.1-0.5-0.2-1-0.5-1.3c-0.8-0.8-1.8-1.3-2.9-1.5c-1.1-0.2-2.2-0.5-3.2-0.8c-1.4-0.5-2.8-1.1-4.1-1.8c-1.3-0.7-2.4-1.7-3.3-3
				c-0.9-1.3-1.4-2.7-1.6-4.1c-0.2-1.5,0-2.9,0.3-4.3c0.4-1.4,1.1-2.7,2-3.8c0.9-1.2,2-2.1,3.3-2.9c1-0.6,2-0.9,3.2-1.1
				c1.2-0.2,2.3-0.2,3.5-0.1c1.2,0.1,2.4,0.3,3.5,0.7c1.2,0.3,2.2,0.7,3.2,1.1c1.1,0.5,1.9,1.2,2.5,2.2c0.6,0.9,0.8,1.9,0.8,2.8
				c0,1-0.3,1.8-1,2.5s-1.5,1-2.7,1c-0.7,0-1.4-0.1-2-0.4c-0.6-0.3-1.2-0.5-1.9-0.7c-0.8-0.3-1.7-0.5-2.7-0.7
				c-1-0.1-1.8-0.1-2.4,0.2c-0.2,0-0.4,0.2-0.6,0.5c-0.2,0.3-0.4,0.6-0.5,0.9c-0.1,0.4-0.1,0.7-0.1,1.1c0.1,0.4,0.3,0.7,0.7,0.9
				c1.1,0.6,2.3,1.1,3.6,1.4c1.3,0.3,2.5,0.7,3.7,1.1c1.2,0.4,2.3,1,3.4,1.6c1,0.7,1.9,1.6,2.6,2.8c1,1.8,1.5,3.6,1.6,5.5
				c0,1.9-0.4,3.7-1.1,5.4c-0.8,1.7-1.9,3.1-3.5,4.3c-1.5,1.2-3.3,1.9-5.4,2.1c-1.4,0.1-2.9,0.1-4.2-0.2c-1.4-0.3-2.7-0.8-4-1.5
				c-1.3-0.7-2.5-1.5-3.6-2.4c-1.1-0.9-2.1-1.9-2.9-2.9L392.8,636.2z"/>
			<path class="st1" d="M428.3,617.7c-0.9-0.2-1.7-0.6-2.4-1.2c-0.7-0.6-1.1-1.2-1.4-1.9c-0.3-0.7-0.3-1.5,0-2.3
				c0.3-0.8,0.8-1.5,1.7-2.2c0.7-0.6,1.6-0.8,2.5-0.8c0.9,0,1.8,0,2.7,0c0-0.3,0-1-0.1-2.1c0-1.1-0.1-2.3,0-3.6
				c0-1.3,0.1-2.5,0.2-3.7s0.4-2,0.8-2.5c0.9-1.3,2.1-1.9,3.4-1.8c1.4,0.1,2.5,0.7,3.4,2c0.2,0.2,0.4,0.5,0.5,0.8
				c0.2,0.3,0.2,0.6,0.2,0.9c0,1.7,0.1,3.3,0,5c0,1.7,0,3.3,0,5h5.5c0.8,0,1.6,0.3,2.2,0.8c0.6,0.6,1,1.2,1.3,1.9
				c0.3,0.7,0.3,1.5,0.2,2.3c-0.1,0.8-0.5,1.4-1.1,1.9c-1.1,0.9-2.3,1.3-3.7,1.4c-1.4,0-2.9,0.1-4.4,0.1c0,2.6,0,5.1,0,7.7
				c0,2.6,0,5.1,0,7.7c0,1.1,0.1,2.3,0.2,3.4c0.1,1.2,0,2.3-0.2,3.3c-0.2,0.8-0.6,1.5-1.2,2c-0.6,0.5-1.2,0.8-1.9,0.9
				c-0.7,0.1-1.4,0.1-2.2-0.1c-0.7-0.2-1.4-0.6-2.1-1.1c-0.3-0.3-0.6-0.9-0.7-1.7c-0.2-0.8-0.3-1.6-0.3-2.5c0-1,0-2.1,0-3.3
				c0-0.9,0-2.1,0-3.6c0-1.5,0-3,0-4.6c0-1.6,0-3.1,0-4.6s0-2.6,0-3.4L428.3,617.7z"/>
			<path class="st1" d="M483.5,637.8c0.4,1.3,0.3,2.5-0.2,3.3c-0.5,0.9-1.2,1.5-2.1,1.8c-0.9,0.3-1.9,0.3-3-0.1
				c-1.1-0.4-2-1.1-2.8-2.2c-1.3,1-2.6,1.7-3.8,2.1c-1.2,0.4-2.6,0.6-4.2,0.7c-2.4,0.1-4.5-0.2-6.3-0.8c-1.9-0.6-3.4-1.6-4.7-2.8
				c-1.3-1.3-2.2-2.8-2.8-4.7c-0.6-1.9-0.8-4-0.6-6.5c0.1-1,0.3-2,0.5-3c0.3-1,0.5-1.9,0.9-2.9c0.4-1,0.9-2.1,1.6-3.3
				c0.7-1.2,1.4-2.2,2.1-3c2.5-3.1,5.6-5.3,9.4-6.6c0.6-0.2,1.5-0.4,2.6-0.6c1.1-0.2,2.2-0.3,3.4-0.2c1.1,0,2.2,0.2,3.3,0.5
				c1,0.3,1.8,0.8,2.3,1.5c0.4,0.6,0.7,1,0.9,1.5c0.2,0.4,0.3,0.9,0.3,1.3c0,0.5,0,1,0,1.5c0,0.5,0,1.2,0,2c0,1.3,0,2.6,0,3.8
				c0,1.2,0,2.5,0,3.7c0,0.4,0,1,0,1.6s0,1.4,0.1,2.1c0,0.7,0.1,1.5,0.2,2.1c0.1,0.7,0.2,1.2,0.3,1.6L483.5,637.8z M468.8,634.7
				c0.5-0.3,1.1-0.7,1.7-1.1c0.6-0.4,1.2-0.8,1.7-1.4c-0.4-2.5-0.7-4.9-0.7-7.4c-0.1-2.5-0.1-4.9,0-7.4c-2.1,0.4-4,1.3-5.6,2.7
				c-1.7,1.4-2.8,3.1-3.5,5.1c-0.3,0.8-0.5,1.6-0.7,2.4c-0.2,0.8-0.3,1.6-0.2,2.4c0,1.1,0.3,2,0.8,2.7c0.5,0.7,1.1,1.3,1.8,1.6
				c0.7,0.4,1.5,0.6,2.3,0.6C467.3,635,468.1,634.9,468.8,634.7z"/>
			<path class="st1" d="M516.2,639c-0.1,1.2-0.6,2.1-1.3,2.9c-0.7,0.7-1.5,1.2-2.4,1.4c-0.9,0.2-1.8,0.1-2.6-0.3
				c-0.8-0.4-1.4-1.2-1.8-2.4c-0.4-1.3-0.6-2.7-0.5-4.1c0.1-1.4,0.1-2.7,0.1-3.9c0-2.5,0-5,0-7.5c0-2.5-0.1-5-0.3-7.5
				c0-0.1-0.1-0.2-0.1-0.2c0-0.1-0.1-0.2-0.3-0.3c-1.1-0.3-2.2-0.2-3.4,0.2c-1.2,0.4-2.2,1-3.1,1.6c-0.7,0.6-1.5,1.4-2.2,2.5
				c-0.7,1-1.1,2.1-1.1,3v9.6c0,0.7,0,1.6,0.1,2.4c0,0.9,0,1.7-0.1,2.6c-0.1,0.8-0.4,1.6-0.8,2.3c-0.4,0.7-1.1,1.2-2,1.5
				c-0.5,0.2-1,0.3-1.4,0.2c-0.4,0-0.9-0.2-1.4-0.3c-0.8-0.3-1.4-0.8-1.8-1.4c-0.4-0.7-0.6-1.4-0.8-2.2s-0.2-1.5-0.2-2.2
				c0-0.7,0-1.3,0-1.7c0-1.1,0-2.6,0-4.6c0-2,0-4.1,0-6.4c0-2.2,0-4.4,0-6.4s0-3.6,0-4.6c0-1,0.3-1.9,0.9-2.5
				c0.6-0.7,1.3-1.1,2.1-1.3c0.8-0.2,1.7-0.2,2.6,0.1c0.9,0.3,1.7,0.9,2.3,1.8c1.9-1.2,3.9-2,6.1-2.4c2.2-0.4,4.3-0.3,6.3,0.2
				c2,0.6,3.6,1.6,4.9,3.1c1.3,1.5,2,3.6,2.1,6.3c0,0.1,0,0.4,0.1,0.8c0,0.5,0.1,1.1,0.1,1.9V639z"/>
			<path class="st1" d="M552.2,635.3c0.8,1.3,1.1,2.6,0.8,3.6c-0.3,1.1-0.8,1.9-1.6,2.4c-0.8,0.5-1.8,0.7-2.9,0.6
				c-1.1-0.1-2.2-0.7-3.3-1.8c-1.1,0.8-2.3,1.4-3.5,1.8c-1.2,0.4-2.5,0.8-3.8,1.1c-2.1,0.5-4.1,0.4-6-0.1c-1.9-0.5-3.6-1.4-5.1-2.6
				c-1.5-1.2-2.7-2.7-3.6-4.5c-0.9-1.8-1.4-3.7-1.5-5.8c-0.1-2.3,0-4.5,0.5-6.7c0.5-2.1,1.3-4.1,2.3-5.8c1.1-1.8,2.5-3.3,4.2-4.5
				s3.8-2.1,6.2-2.6c1.4-0.3,2.8-0.4,4.2-0.4c1.4,0,2.8,0.1,4.2,0.3c0-1-0.1-2.2-0.1-3.5c0-1.3,0-2.6,0-3.9c0-1.3,0-2.4,0.1-3.4
				c0.1-1,0.2-1.7,0.3-2.1c0.3-0.8,0.8-1.5,1.5-1.9c0.7-0.4,1.4-0.7,2.1-0.7c0.7,0,1.5,0.2,2.2,0.6c0.7,0.4,1.3,1,1.7,1.8
				c0.1,0.2,0.2,0.5,0.3,0.7c0.1,0.2,0.2,0.4,0.2,0.7c0,6.1,0.1,12.1,0,18c0,5.9,0,12,0,18C551.9,634.9,552.1,635.1,552.2,635.3z
				 M542.6,631.4c0.1-0.1,0.3-0.3,0.5-0.4c0.3-0.1,0.4-0.3,0.4-0.6c0-1.9,0-3.9,0-5.7c0-1.9,0-3.8-0.1-5.7c-1.1-0.2-2.3-0.4-3.5-0.4
				c-1.2,0-2.4,0.1-3.5,0.3c-1.1,0.3-2.2,0.7-3.1,1.4c-1,0.7-1.7,1.6-2.3,2.8c-0.3,0.9-0.5,1.8-0.8,2.6c-0.2,0.9-0.4,1.7-0.4,2.6
				c0,0.8,0.1,1.7,0.3,2.5c0.2,0.8,0.6,1.6,1.2,2.3c0.2,0.2,0.4,0.4,0.7,0.6c0.3,0.2,0.8,0.5,1.5,1c1.7,0.1,3.4,0,4.9-0.5
				C540,633.7,541.4,632.8,542.6,631.4z"/>
		</g>
	</g>
</g>
</svg>
